# xmcd CD database file
#
# Track frame offsets:
#	150
#	9962
#	34925
#	55442
#	77502
#	97462
#	143400
#	163820
#	178175
#	194790
#	216559
#	234660
#	250097
#	267007
#	284060
#
# Disc length: 3973 seconds
#
# Revision: 3
# Processed by: cddbd v1.5.2PL0 Copyright (c) Steve Scherf et al.
# Submitted via: CdAid (MTCDDB.DLL V2003.12.21)
#
DISCID=e50f830f
DTITLE=Friedemann - On A Personal Note
DYEAR=1997
DGENRE=Blues
TTITLE0=Flash In The Pan
TTITLE1=Again And Again
TTITLE2=Days Of Reckoning
TTITLE3=Memory Lane
TTITLE4=Waiting On The Hill
TTITLE5=Passion And Pride
TTITLE6=Springtime Promises
TTITLE7=Candy Man
TTITLE8=Jane
TTITLE9=Fille Du Soleil
TTITLE10=When I Get My Wings
TTITLE11=Mit Leichtem Gepäck
TTITLE12=Come On Back
TTITLE13=Blow With The Wind
TTITLE14=Mr. Tambourine Man
EXTD=Compilation ID3G:   0 YEAR: 1997
EXTT0=
EXTT1=
EXTT2=
EXTT3=
EXTT4=
EXTT5=
EXTT6=
EXTT7=
EXTT8=
EXTT9=
EXTT10=
EXTT11=
EXTT12=
EXTT13=
EXTT14=
PLAYORDER=
